<svg version="1.1" id="Layer_1" xmlns="http://www.w3.org/2000/svg" xmlns:xlink="http://www.w3.org/1999/xlink" x="0px" y="0px"
	 width="100%" viewBox="0 0 944 944" enable-background="new 0 0 944 944" xml:space="preserve">
<path fill="#000000" opacity="1.000000" stroke="none" 
	d="
M945.000000,34.000008 
	C945.000000,337.596924 945.000000,641.193848 945.000000,945.000000 
	C650.970642,945.000000 356.941284,945.000000 62.593094,944.774536 
	C62.965889,941.513611 61.212013,938.738586 61.285183,935.809753 
	C61.431488,929.953247 58.109749,926.846252 53.683270,923.481873 
	C44.985085,916.870789 34.667915,912.128052 29.338713,901.346680 
	C27.029287,896.674622 21.232391,893.403198 15.691686,895.488953 
	C10.324246,897.509521 2.069894,896.062866 1.000000,905.000000 
	C1.000000,603.735046 1.000000,302.470062 1.000000,1.000000 
	C304.696014,1.000000 608.392090,1.000000 912.356995,1.184255 
	C912.021545,1.923308 911.309937,2.423272 911.402100,3.388772 
	C912.702209,17.005239 921.608582,27.405451 935.053772,31.076979 
	C938.386719,31.987123 941.685486,33.022308 945.000000,34.000008 
M417.308472,933.942871 
	C427.174774,935.474854 437.102844,936.381958 447.062531,937.045044 
	C450.253845,937.257507 451.333435,935.696594 451.231323,932.928772 
	C450.648376,917.123718 450.282501,901.304138 449.313568,885.521912 
	C448.468781,871.761780 446.799347,858.058594 449.647522,844.330261 
	C451.712616,834.376221 453.437653,824.353760 459.603882,815.825989 
	C469.108917,802.680664 484.078949,803.420227 491.859253,817.556763 
	C493.291168,820.158447 494.444061,822.980957 495.277374,825.832520 
	C497.907745,834.833435 498.667877,844.151123 499.172577,853.446472 
	C500.546326,878.748169 500.422363,904.080078 500.296875,929.408447 
	C500.255707,937.716370 500.702728,938.275940 509.075165,937.560974 
	C526.308289,936.089172 543.514465,934.242615 560.539978,931.176880 
	C616.858948,921.035828 669.555237,901.272156 718.433167,871.403870 
	C790.971924,827.076782 847.209473,767.301208 886.693481,692.140015 
	C925.230286,618.781921 942.450684,540.444763 938.844971,457.559448 
	C937.355103,423.310822 932.114929,389.673798 922.986450,356.675842 
	C904.766541,290.813171 873.466797,231.868835 829.054138,179.863510 
	C793.731506,138.502106 752.398560,104.489746 705.059998,77.794579 
	C649.492859,46.459152 589.982788,27.534782 526.449158,21.141573 
	C495.182068,17.995256 463.999664,18.101383 432.743042,21.166662 
	C396.941925,24.677608 362.031281,32.214935 328.208008,44.318272 
	C223.384293,81.828415 142.004120,148.344650 84.531471,243.626648 
	C46.175896,307.215088 25.328754,376.560150 20.608322,450.590118 
	C18.195827,488.424957 20.490765,526.136108 27.653955,563.435730 
	C41.922520,637.733887 72.233635,704.787476 119.313660,764.059326 
	C172.487366,831.002869 239.244446,879.493713 319.265808,909.572449 
	C350.690857,921.384644 383.056488,929.685852 417.308472,933.942871 
z"/>
<path fill="#000000" opacity="1.000000" stroke="none" 
	d="
M552.273193,606.737793 
	C554.837585,634.001892 565.497803,657.576416 581.137512,679.078430 
	C597.533997,701.620911 609.194824,726.231812 614.372925,753.718994 
	C622.500427,796.863281 611.884766,835.548706 586.232910,870.572327 
	C577.636658,882.309204 567.667175,892.803955 557.010071,902.683655 
	C553.362000,906.065674 549.465332,907.873291 544.885071,905.110474 
	C540.602661,902.527283 541.382019,898.430420 542.473999,894.400391 
	C552.536865,857.264648 541.756592,825.244263 518.323853,796.366333 
	C511.290985,787.699219 504.066650,779.187012 497.064972,770.495117 
	C486.285339,757.113281 478.501770,742.113342 473.273651,725.758667 
	C472.637360,723.768250 472.437500,721.147949 469.760529,720.792664 
	C467.387543,720.477783 466.522919,722.799744 465.263458,724.258240 
	C445.693665,746.920654 428.379486,771.104065 415.715637,798.374146 
	C402.225800,827.422913 396.665588,857.515869 404.326874,889.212097 
	C405.300262,893.239197 406.822998,897.143066 408.237671,901.051086 
	C409.561676,904.708862 410.426361,908.330200 406.545380,910.882629 
	C402.798096,913.347046 398.869690,913.032471 395.445404,910.149597 
	C391.370209,906.718811 387.373291,903.176453 383.548126,899.470215 
	C351.249084,868.175049 328.052582,831.532593 317.689392,787.328857 
	C307.878021,745.478943 312.158325,704.384644 324.267303,663.739136 
	C338.253540,616.792419 361.648590,574.497681 388.704224,534.016479 
	C406.287994,507.707367 424.836273,482.018280 440.608459,454.533661 
	C455.854309,427.966156 468.567139,400.417389 473.044342,369.684631 
	C476.840790,343.624786 474.234528,318.273895 465.427582,293.509918 
	C464.758118,291.627502 464.037567,289.763214 463.333649,287.893158 
	C462.218353,284.930573 461.726837,281.994293 464.453888,279.620697 
	C467.423004,277.036438 470.845459,277.051300 474.283417,278.484344 
	C476.793457,279.530579 478.596680,281.580780 480.483978,283.459625 
	C500.915039,303.799561 511.634979,329.186829 518.180054,356.642822 
	C523.135498,377.430328 525.587646,398.589081 525.060303,419.943359 
	C524.583923,439.232056 522.209473,458.388916 518.950073,477.419006 
	C513.813477,507.408997 508.391022,537.354675 503.697937,567.414062 
	C501.357391,582.405334 501.089386,597.584229 505.388519,612.443787 
	C506.004456,614.572632 506.113098,617.045288 508.538208,618.669434 
	C510.767609,614.943481 510.705841,610.850586 511.638275,607.063904 
	C516.224976,588.437317 525.160400,572.775635 541.674805,562.133545 
	C545.084961,559.936035 548.523865,558.453491 552.293213,561.144958 
	C556.066528,563.839294 555.844910,567.627014 554.783875,571.513916 
	C551.665955,582.936340 552.050293,594.605957 552.273193,606.737793 
z"/>
<path fill="#000000" opacity="1.000000" stroke="none" 
	d="
M313.616211,244.425247 
	C299.841644,233.823532 290.372864,219.688156 278.921051,207.401337 
	C263.349609,190.694427 246.856583,174.900436 229.818054,159.684509 
	C228.078323,158.130890 226.366806,156.542740 224.699707,154.911819 
	C223.646423,153.881393 222.183762,152.733398 223.339447,151.111450 
	C224.503922,149.477203 226.138306,150.500565 227.389420,151.171494 
	C234.728104,155.106995 242.097122,158.996429 249.308105,163.157562 
	C271.744049,176.104187 292.596710,191.389023 312.433441,207.927872 
	C327.200287,220.239731 336.008423,236.602173 339.676605,255.581253 
	C340.020874,257.362488 340.690216,259.330261 338.874634,260.659424 
	C336.983459,262.043915 335.278168,260.654266 333.882446,259.632202 
	C327.164520,254.712784 320.549286,249.653152 313.616211,244.425247 
z"/>
<path fill="#000000" opacity="1.000000" stroke="none" 
	d="
M626.167358,215.076843 
	C653.972046,198.979553 682.110596,184.496918 712.767822,174.765472 
	C714.106384,178.976852 711.098633,179.800659 709.294067,181.048920 
	C690.248535,194.223480 671.568176,207.885330 653.333191,222.166214 
	C645.572510,228.244110 638.817810,235.409790 631.346252,241.789749 
	C618.723999,252.567917 604.607788,261.027344 589.836853,268.451538 
	C588.177979,269.285339 586.306274,271.167511 584.406372,269.348389 
	C582.735413,267.748444 583.657837,265.603424 584.288147,263.704559 
	C590.390442,245.320862 601.762207,230.957977 617.695190,220.122482 
	C620.307434,218.345917 623.124817,216.870880 626.167358,215.076843 
z"/>
<path fill="#000000" opacity="1.000000" stroke="none" 
	d="
M485.594666,201.313095 
	C484.933197,203.432373 484.666412,205.667068 482.543152,205.930435 
	C480.113220,206.231827 479.332916,203.836655 478.400757,202.171371 
	C468.023071,183.631989 464.643188,163.991501 468.588562,142.986313 
	C474.404083,112.024315 481.782318,81.522324 493.637878,52.241199 
	C494.012512,51.315865 494.359924,50.375492 494.800873,49.482044 
	C495.322876,48.424450 495.947968,47.265705 497.371124,47.587902 
	C499.075195,47.973705 499.071625,49.412338 498.922882,50.788677 
	C497.548431,63.505745 495.920258,76.200974 494.836243,88.942566 
	C493.116821,109.152435 491.495056,129.360458 492.781616,149.709015 
	C493.583618,162.394135 491.117737,174.896164 488.879150,187.338501 
	C488.056519,191.910568 486.789154,196.402634 485.594666,201.313095 
z"/>
</svg>