<svg version="1.1" id="Layer_1" xmlns="http://www.w3.org/2000/svg" xmlns:xlink="http://www.w3.org/1999/xlink" x="0px" y="0px"
	 width="100%" viewBox="0 0 958 955" enable-background="new 0 0 958 955" xml:space="preserve">
<path fill="#FEFEFE" opacity="1.000000" stroke="none" 
	d="
M1.000000,373.000000 
	C1.000000,248.666687 1.000000,124.833366 1.000000,1.000033 
	C320.333282,1.000022 639.666565,1.000022 958.999878,1.000011 
	C958.999878,319.333252 958.999878,637.666504 958.999939,955.999817 
	C639.666809,955.999878 320.333588,955.999878 1.000193,955.999939 
	C1.000000,761.833313 1.000000,567.666687 1.000000,373.000000 
M282.677795,895.856934 
	C335.720764,920.448914 391.338715,934.656494 450.219910,938.076111 
	C449.239166,919.002319 448.455750,900.708435 447.308716,882.437439 
	C446.410889,868.135437 445.604431,853.891479 448.835144,839.744141 
	C450.958344,830.446594 453.153412,821.187317 459.796997,813.851746 
	C468.894287,803.806702 480.572266,804.484741 487.823914,815.722229 
	C490.120911,819.281616 492.022125,823.415710 492.845367,827.538269 
	C494.405334,835.350159 495.742523,843.325195 495.958435,851.265381 
	C496.705627,878.742859 496.931976,906.234497 497.352081,933.720825 
	C497.374176,935.165955 497.354919,936.611755 497.354919,939.509766 
	C518.680115,936.833435 539.472290,935.230164 559.872131,931.488098 
	C644.148438,916.028809 719.405334,880.772644 782.540161,822.786865 
	C905.278442,710.058594 955.191467,570.033936 931.491333,405.196320 
	C918.168213,312.532043 878.043274,231.248825 812.995300,163.932007 
	C696.708923,43.589649 554.668701,-1.897048 390.075562,26.605303 
	C307.796844,40.853386 235.681808,78.176544 172.831940,133.287521 
	C47.396137,243.278030 -9.777794,416.916199 28.422113,579.245667 
	C62.591908,724.449280 148.291870,829.527588 282.677795,895.856934 
z"/>
<path fill="#282828" opacity="1.000000" stroke="none" 
	d="
M282.343811,895.682983 
	C148.291870,829.527588 62.591908,724.449280 28.422113,579.245667 
	C-9.777794,416.916199 47.396137,243.278030 172.831940,133.287521 
	C235.681808,78.176544 307.796844,40.853386 390.075562,26.605303 
	C554.668701,-1.897048 696.708923,43.589649 812.995300,163.932007 
	C878.043274,231.248825 918.168213,312.532043 931.491333,405.196320 
	C955.191467,570.033936 905.278442,710.058594 782.540161,822.786865 
	C719.405334,880.772644 644.148438,916.028809 559.872131,931.488098 
	C539.472290,935.230164 518.680115,936.833435 497.354919,939.509766 
	C497.354919,936.611755 497.374176,935.165955 497.352081,933.720825 
	C496.931976,906.234497 496.705627,878.742859 495.958435,851.265381 
	C495.742523,843.325195 494.405334,835.350159 492.845367,827.538269 
	C492.022125,823.415710 490.120911,819.281616 487.823914,815.722229 
	C480.572266,804.484741 468.894287,803.806702 459.796997,813.851746 
	C453.153412,821.187317 450.958344,830.446594 448.835144,839.744141 
	C445.604431,853.891479 446.410889,868.135437 447.308716,882.437439 
	C448.455750,900.708435 449.239166,919.002319 450.219910,938.076111 
	C391.338715,934.656494 335.720764,920.448914 282.343811,895.682983 
M476.280243,327.257751 
	C480.417023,365.040527 471.223328,400.295197 455.772980,434.301605 
	C441.854675,464.936066 422.837952,492.407257 402.992920,519.414917 
	C373.410339,559.674683 347.888733,602.264343 331.324249,649.698242 
	C316.242889,692.885193 309.835022,737.031433 319.240723,782.368347 
	C329.711456,832.838806 357.309753,872.970581 396.007629,906.043579 
	C397.150391,907.020203 399.139954,907.005981 400.734680,907.453735 
	C400.894623,905.825195 401.663513,903.953552 401.124817,902.603882 
	C389.743164,874.089294 391.156067,845.567627 400.728363,816.973267 
	C411.946289,783.463318 431.381866,754.813477 453.519867,727.783020 
	C459.558685,720.409546 465.936707,713.313904 472.388153,705.824768 
	C473.246002,711.421021 473.643921,716.228943 474.753571,720.866699 
	C479.185791,739.391296 488.887360,755.265137 500.435944,770.065491 
	C508.015991,779.779846 516.337402,788.917297 523.877380,798.660889 
	C546.594543,828.017517 555.192810,860.495361 544.955811,896.996094 
	C544.605225,898.245911 545.454285,899.832153 545.744141,901.261597 
	C547.208374,900.859070 549.142090,900.918762 550.063904,899.982300 
	C558.930420,890.975159 568.438599,882.440979 576.232666,872.563782 
	C612.729431,826.311829 619.461182,775.651794 597.307495,721.077942 
	C590.420776,704.112976 579.931702,689.373291 569.652710,674.395813 
	C554.620178,652.491882 545.295471,628.269043 545.039612,601.412231 
	C544.939392,590.887878 547.072937,580.347107 548.064514,569.802124 
	C548.207458,568.281433 548.161926,565.961792 547.272888,565.337769 
	C546.322449,564.670593 544.218872,565.402344 542.715332,565.849060 
	C541.640869,566.168335 540.703796,566.992004 539.743286,567.646240 
	C525.433167,577.393372 517.776245,591.551453 514.244324,607.936768 
	C512.207153,617.387329 511.700256,627.167664 510.341400,638.114136 
	C507.251221,632.997864 504.134705,628.755127 501.961914,624.074402 
	C494.454651,607.901611 494.448547,590.544495 496.593811,573.548828 
	C500.027130,546.348938 504.781708,519.305237 509.403320,492.268341 
	C515.733032,455.239044 520.031067,418.183075 515.126892,380.565460 
	C511.183319,350.316406 501.296448,322.412689 483.438507,297.568634 
	C479.865295,292.597595 475.500336,288.164124 471.215881,283.759613 
	C470.230957,282.747101 468.072083,282.876556 466.453491,282.480469 
	C466.344208,284.097992 465.819244,285.818604 466.190826,287.316864 
	C469.424255,300.354340 472.818390,313.351929 476.280243,327.257751 
M694.086609,188.557831 
	C698.673706,185.249344 703.260864,181.940857 707.847961,178.632385 
	C705.946289,178.148270 704.567566,178.557419 703.268494,179.143188 
	C676.064087,191.408981 650.233704,206.119598 625.491943,222.782791 
	C612.129517,231.782150 600.347412,242.466522 590.629639,255.326187 
	C587.471863,259.505005 584.791199,264.044464 581.892334,268.418976 
	C582.172058,268.591034 582.451721,268.763092 582.731445,268.935120 
	C619.656189,242.282394 656.580933,215.629654 694.086609,188.557831 
M483.499359,174.147476 
	C487.207245,133.883499 490.915131,93.619537 494.623047,53.355568 
	C494.091553,53.278503 493.560059,53.201435 493.028564,53.124367 
	C492.332947,55.297573 491.503967,57.438145 490.963043,59.649197 
	C487.052917,75.631989 482.547333,91.505020 479.484375,107.650719 
	C474.926514,131.677063 470.358429,155.854340 473.989471,180.507523 
	C475.222900,188.882126 477.404602,197.117065 479.152985,205.415817 
	C479.653290,205.319366 480.153595,205.222916 480.653900,205.126465 
	C481.560944,195.103638 482.467987,185.080795 483.499359,174.147476 
M300.696228,226.799561 
	C312.438690,237.992706 324.181152,249.185867 336.879181,261.289886 
	C336.053741,258.890289 335.713745,257.667969 335.222687,256.509644 
	C328.357971,240.316864 318.196747,226.341110 305.521637,214.336609 
	C282.128784,192.181519 256.552826,172.780197 229.271927,155.640274 
	C227.806168,154.719376 226.053802,154.254715 224.434845,153.577667 
	C224.368164,153.784515 224.301483,153.991364 224.234802,154.198196 
	C249.550735,178.237335 274.866669,202.276474 300.696228,226.799561 
z"/>
<path fill="#FEFEFE" opacity="1.000000" stroke="none" 
	d="
M476.222504,326.809570 
	C472.818390,313.351929 469.424255,300.354340 466.190826,287.316864 
	C465.819244,285.818604 466.344208,284.097992 466.453491,282.480469 
	C468.072083,282.876556 470.230957,282.747101 471.215881,283.759613 
	C475.500336,288.164124 479.865295,292.597595 483.438507,297.568634 
	C501.296448,322.412689 511.183319,350.316406 515.126892,380.565460 
	C520.031067,418.183075 515.733032,455.239044 509.403320,492.268341 
	C504.781708,519.305237 500.027130,546.348938 496.593811,573.548828 
	C494.448547,590.544495 494.454651,607.901611 501.961914,624.074402 
	C504.134705,628.755127 507.251221,632.997864 510.341400,638.114136 
	C511.700256,627.167664 512.207153,617.387329 514.244324,607.936768 
	C517.776245,591.551453 525.433167,577.393372 539.743286,567.646240 
	C540.703796,566.992004 541.640869,566.168335 542.715332,565.849060 
	C544.218872,565.402344 546.322449,564.670593 547.272888,565.337769 
	C548.161926,565.961792 548.207458,568.281433 548.064514,569.802124 
	C547.072937,580.347107 544.939392,590.887878 545.039612,601.412231 
	C545.295471,628.269043 554.620178,652.491882 569.652710,674.395813 
	C579.931702,689.373291 590.420776,704.112976 597.307495,721.077942 
	C619.461182,775.651794 612.729431,826.311829 576.232666,872.563782 
	C568.438599,882.440979 558.930420,890.975159 550.063904,899.982300 
	C549.142090,900.918762 547.208374,900.859070 545.744141,901.261597 
	C545.454285,899.832153 544.605225,898.245911 544.955811,896.996094 
	C555.192810,860.495361 546.594543,828.017517 523.877380,798.660889 
	C516.337402,788.917297 508.015991,779.779846 500.435944,770.065491 
	C488.887360,755.265137 479.185791,739.391296 474.753571,720.866699 
	C473.643921,716.228943 473.246002,711.421021 472.388153,705.824768 
	C465.936707,713.313904 459.558685,720.409546 453.519867,727.783020 
	C431.381866,754.813477 411.946289,783.463318 400.728363,816.973267 
	C391.156067,845.567627 389.743164,874.089294 401.124817,902.603882 
	C401.663513,903.953552 400.894623,905.825195 400.734680,907.453735 
	C399.139954,907.005981 397.150391,907.020203 396.007629,906.043579 
	C357.309753,872.970581 329.711456,832.838806 319.240723,782.368347 
	C309.835022,737.031433 316.242889,692.885193 331.324249,649.698242 
	C347.888733,602.264343 373.410339,559.674683 402.992920,519.414917 
	C422.837952,492.407257 441.854675,464.936066 455.772980,434.301605 
	C471.223328,400.295197 480.417023,365.040527 476.222504,326.809570 
z"/>
<path fill="#F6F6F6" opacity="1.000000" stroke="none" 
	d="
M693.796143,188.767365 
	C656.580933,215.629654 619.656189,242.282394 582.731445,268.935120 
	C582.451721,268.763092 582.172058,268.591034 581.892334,268.418976 
	C584.791199,264.044464 587.471863,259.505005 590.629639,255.326187 
	C600.347412,242.466522 612.129517,231.782150 625.491943,222.782791 
	C650.233704,206.119598 676.064087,191.408981 703.268494,179.143188 
	C704.567566,178.557419 705.946289,178.148270 707.847961,178.632385 
	C703.260864,181.940857 698.673706,185.249344 693.796143,188.767365 
z"/>
<path fill="#F6F6F6" opacity="1.000000" stroke="none" 
	d="
M483.437195,174.602722 
	C482.467987,185.080795 481.560944,195.103638 480.653900,205.126465 
	C480.153595,205.222916 479.653290,205.319366 479.152985,205.415817 
	C477.404602,197.117065 475.222900,188.882126 473.989471,180.507523 
	C470.358429,155.854340 474.926514,131.677063 479.484375,107.650719 
	C482.547333,91.505020 487.052917,75.631989 490.963043,59.649197 
	C491.503967,57.438145 492.332947,55.297573 493.028564,53.124367 
	C493.560059,53.201435 494.091553,53.278503 494.623047,53.355568 
	C490.915131,93.619537 487.207245,133.883499 483.437195,174.602722 
z"/>
<path fill="#F6F6F6" opacity="1.000000" stroke="none" 
	d="
M300.439423,226.557587 
	C274.866669,202.276474 249.550735,178.237335 224.234802,154.198196 
	C224.301483,153.991364 224.368164,153.784515 224.434845,153.577667 
	C226.053802,154.254715 227.806168,154.719376 229.271927,155.640274 
	C256.552826,172.780197 282.128784,192.181519 305.521637,214.336609 
	C318.196747,226.341110 328.357971,240.316864 335.222687,256.509644 
	C335.713745,257.667969 336.053741,258.890289 336.879181,261.289886 
	C324.181152,249.185867 312.438690,237.992706 300.439423,226.557587 
z"/>
</svg>